<svg xmlns="http://www.w3.org/2000/svg" viewBox="0 0 103 91" fill="none">
  <defs>
    <linearGradient id="icon-gradient" x1="-2.5982" y1="-2.74055" x2="105.4577" y2="93.8613" gradientUnits="userSpaceOnUse">
      <stop stop-color="#B79BFF"/>
      <stop offset="1" stop-color="#290093"/>
    </linearGradient>
  </defs>
  <path fill="url(#icon-gradient)" fill-rule="evenodd" clip-rule="evenodd" d="M51.4414 58.9812V58.9742C53.4924 58.9742 55.5443 58.935 57.5936 58.9923C58.4907 59.0174 59.036 58.7583 59.4888 57.9448C61.5633 54.2183 63.7229 50.5391 65.7949 46.8115C66.0187 46.4088 66.082 45.6905 65.8704 45.3109C63.7276 41.4631 61.5387 37.6395 59.2806 33.8579C59.022 33.4254 58.266 33.06 57.7343 33.0517C53.587 32.9868 49.4379 33.0386 45.2897 33C44.4366 32.9921 43.9243 33.2621 43.5054 34.0046C41.4093 37.7213 39.243 41.3988 37.18 45.1334C36.9307 45.5848 36.9444 46.4122 37.1962 46.8686C39.257 50.6034 41.4208 54.2817 43.509 58.0018C43.9293 58.7505 44.4391 59.0213 45.2889 58.9987C47.3385 58.9444 49.3904 58.9812 51.4414 58.9812ZM55.1172 90.9588C56.9811 87.659 58.6546 84.6821 60.3415 81.7124C66.9764 70.03 73.6069 58.3448 80.2714 46.6791C80.7672 45.8117 80.8033 45.1658 80.2841 44.2834C78.1942 40.7303 76.1754 37.1345 74.1689 33.5332C73.7614 32.8025 73.292 32.4548 72.4234 32.4824C70.5424 32.5422 68.6583 32.5007 66.4878 32.5007C67.9028 35.0055 69.1869 37.2815 70.4738 39.5558C71.3637 41.1286 72.2045 42.7329 73.1703 44.2575C73.7214 45.1277 73.6758 45.8242 73.1831 46.688C67.2617 57.0707 61.3678 67.4695 55.4647 77.8628C53.1996 81.8508 50.9013 85.8204 48.6817 89.8334C48.2112 90.6846 47.6762 90.9831 47.3421 90.9771C40.0563 90.9399 33.3896 90.9407 26.7233 90.9755C25.8597 90.98 25.392 90.6668 24.9817 89.9425C16.7835 75.473 8.57191 61.011 0.337011 46.5624C-0.111579 45.7755 -0.119357 45.1814 0.355899 44.4067C1.4139 42.683 2.36914 40.8959 3.52075 38.8618C4.05906 39.7214 4.45876 40.3085 4.80819 40.9243C12.6753 54.7794 20.5536 68.6278 28.3729 82.5097C29.141 83.8732 29.9829 84.4653 31.6008 84.4107C35.3926 84.2824 39.1922 84.3522 42.9878 84.3976C43.8378 84.4076 44.3194 84.1499 44.7172 83.3749C45.5807 81.6932 46.561 80.0717 47.6309 78.1832C46.9404 78.1529 46.4688 78.1145 45.9971 78.1139C42.1081 78.11 38.2191 78.0866 34.3307 78.1326C33.383 78.1437 32.823 77.8464 32.345 77.0018C24.2237 62.6487 16.0841 48.3064 7.90333 33.9875C7.29697 32.9261 7.23725 32.13 7.91055 31.0944C8.93633 29.5172 9.80241 27.8358 10.8957 25.9192C11.3757 26.6961 11.7179 27.2131 12.0234 27.7509C19.9647 41.7279 27.921 55.6964 35.8081 69.704C36.5206 70.9695 37.2947 71.4152 38.7174 71.3796C42.6037 71.2816 46.4943 71.3186 50.3827 71.3673C51.2447 71.3779 51.7319 71.0884 52.1257 70.3479C53.014 68.6774 53.9701 67.0434 55.0384 65.1468C54.3615 65.1468 53.8837 65.1482 53.4059 65.1465C49.3792 65.1309 45.3513 65.1476 41.3259 65.0586C40.814 65.0471 40.0982 64.6045 39.8399 64.153C32.5214 51.3668 25.2495 38.5537 17.9706 25.7447C16.9635 23.9723 15.9155 22.221 14.9883 20.4077C14.763 19.9676 14.7333 19.2029 14.9666 18.7856C18.3106 12.8001 21.6991 6.83932 25.1384 0.908329C25.3928 0.469337 26.1166 0.0495522 26.6233 0.0484387C43.197 0.00529105 59.7706 0.0203231 76.3446 0C77.1479 0 77.5932 0.261393 77.9692 0.967623C78.9198 2.7531 79.9544 4.49376 81.1313 6.56123C80.3039 6.56123 79.7803 6.56123 79.2567 6.56123C63.1922 6.56457 47.1276 6.58238 31.0631 6.54258C29.8815 6.53951 29.244 6.91559 28.6868 7.93276C26.7511 11.4673 24.7439 14.963 22.7165 18.446C22.2427 19.2603 22.1907 19.9014 22.7149 20.7301C23.7243 22.3254 24.6101 23.999 25.6414 25.8054C27.2188 23.0397 28.7051 20.4319 30.1928 17.8253C30.7439 16.8593 31.4139 15.9421 31.8239 14.9196C32.4886 13.263 33.5685 12.7959 35.3373 12.8043C51.3088 12.8792 67.2809 12.8611 83.2529 12.8318C84.3037 12.8302 84.9492 13.1002 85.4428 14.0748C86.3186 15.8029 87.3344 17.4595 88.4299 19.3894C87.7238 19.4791 87.2191 19.5988 86.7144 19.599C70.7424 19.608 54.7703 19.6322 38.7986 19.5631C37.222 19.5565 36.432 20.082 35.7162 21.4277C33.8893 24.8617 31.9108 28.2158 29.9515 31.5774C29.5598 32.2497 29.4904 32.7504 29.9306 33.4522C30.9598 35.0924 31.8778 36.8027 32.968 38.7065C33.4188 37.9602 33.7782 37.3942 34.1096 36.8122C35.9656 33.5513 37.8483 30.305 39.6438 27.0107C40.1085 26.1578 40.6365 25.8357 41.5951 25.8368C54.0476 25.8499 66.5003 25.8234 78.9528 25.8176C82.9804 25.8156 87.0088 25.8084 91.0345 25.9011C91.5853 25.9139 92.3569 26.3568 92.6313 26.8303C95.999 32.6424 99.2852 38.5016 102.616 44.3354C103.039 45.0773 103.173 45.6908 102.706 46.5101C94.5607 60.7928 86.4266 75.0819 78.3581 89.408C77.6548 90.6565 76.8837 91.0763 75.5213 90.9889C73.7439 90.875 71.9537 90.9611 69.8382 90.9611C70.4265 89.918 70.8476 89.167 71.2729 88.4184C79.1672 74.5204 87.053 60.6177 94.9762 46.7367C95.5084 45.8044 95.4868 45.1216 94.9471 44.2043C92.9044 40.7322 90.93 37.2189 88.9851 33.6905C88.5079 32.8245 87.9807 32.4125 86.9386 32.469C85.1431 32.5667 83.3387 32.496 81.2602 32.496C81.5582 33.0887 81.7524 33.5185 81.9835 33.9268C83.967 37.4343 85.9283 40.9546 87.9668 44.4295C88.4388 45.234 88.3604 45.8197 87.928 46.5791C81.256 58.2916 74.6066 70.0175 67.9555 81.7419C66.4703 84.36 64.9693 86.97 63.5355 89.6162C63.0216 90.5644 62.4441 91.0585 61.2753 90.9897C59.3454 90.8764 57.4041 90.9588 55.1172 90.9588Z"/>
</svg>
