<svg width="206" height="34" viewBox="0 0 206 34" fill="none" xmlns="http://www.w3.org/2000/svg">
<g clip-path="url(#clip0_200_5220)">
<path fill-rule="evenodd" clip-rule="evenodd" d="M19.0936 22.1209V22.1184C19.8548 22.1184 20.6164 22.1038 21.3771 22.1251C21.7101 22.1344 21.9125 22.0382 22.0805 21.7363C22.8505 20.3531 23.6521 18.9875 24.4212 17.6039C24.5042 17.4544 24.5277 17.1878 24.4492 17.0469C23.6539 15.6187 22.8414 14.1995 22.0032 12.7959C21.9073 12.6354 21.6267 12.4997 21.4293 12.4966C19.8899 12.4726 18.3499 12.4918 16.8102 12.4775C16.4936 12.4745 16.3034 12.5747 16.1479 12.8503C15.3699 14.2299 14.5659 15.5949 13.8001 16.981C13.7076 17.1486 13.7127 17.4557 13.8062 17.6251C14.5711 19.0113 15.3742 20.3766 16.1493 21.7574C16.3053 22.0353 16.4945 22.1358 16.8099 22.1274C17.5707 22.1073 18.3323 22.1209 19.0936 22.1209ZM20.4579 33.9901C21.1497 32.7653 21.7709 31.6604 22.397 30.5581C24.8597 26.2219 27.3208 21.8847 29.7944 17.5547C29.9784 17.2328 29.9918 16.9931 29.7992 16.6655C29.0234 15.3467 28.2741 14.0121 27.5293 12.6754C27.3781 12.4042 27.2039 12.2751 26.8815 12.2853C26.1833 12.3076 25.484 12.2922 24.6784 12.2922C25.2035 13.2219 25.6802 14.0666 26.1578 14.9108C26.4882 15.4946 26.8002 16.09 27.1587 16.6559C27.3633 16.9789 27.3463 17.2374 27.1634 17.5581C24.9656 21.4118 22.778 25.2716 20.5869 29.1293C19.7461 30.6095 18.8931 32.0829 18.0692 33.5724C17.8946 33.8883 17.696 33.9991 17.3421 33.9971C14.8677 33.9831 12.3933 33.9834 9.91891 33.9963C9.59838 33.998 9.42476 33.8817 9.27249 33.6129C6.22954 28.2422 3.18164 22.8744 0.125089 17.5114C-0.0414151 17.2194 -0.0443019 16.9989 0.132099 16.7113C0.524801 16.0715 0.879356 15.4082 1.3068 14.6532C1.50661 14.9723 1.65496 15.1902 1.78466 15.4187C4.70472 20.5614 7.62889 25.7015 10.5312 30.854C10.8163 31.3601 11.1288 31.5799 11.7293 31.5596C13.1367 31.512 14.547 31.5379 15.9558 31.5548C16.2713 31.5585 16.4501 31.4628 16.5977 31.1752C16.9183 30.551 17.2821 29.9491 17.6792 29.2482C17.4229 29.2369 17.2479 29.2227 17.0728 29.2225C15.6293 29.221 14.1858 29.2123 12.7426 29.2294C12.3908 29.2335 12.183 29.1232 12.0055 28.8097C8.99113 23.4822 5.96994 18.1588 2.93349 12.844C2.70842 12.45 2.68626 12.1545 2.93617 11.7702C3.31691 11.1847 3.63837 10.5607 4.04417 9.84928C4.22232 10.1377 4.34934 10.3295 4.46274 10.5292C7.41033 15.717 10.3635 20.9017 13.2909 26.1009C13.5554 26.5707 13.8427 26.7361 14.3708 26.7229C15.8132 26.6865 17.2573 26.7002 18.7006 26.7183C19.0205 26.7222 19.2014 26.6148 19.3476 26.3399C19.6773 25.7199 20.0321 25.1134 20.4287 24.4094C20.1774 24.4094 20.0001 24.41 19.8227 24.4093C18.3281 24.4035 16.8331 24.4097 15.339 24.3767C15.149 24.3724 14.8833 24.2082 14.7874 24.0406C12.071 19.2947 9.37187 14.5388 6.67018 9.7845C6.29635 9.12664 5.90736 8.47663 5.56322 7.80358C5.4796 7.64022 5.46857 7.35639 5.55517 7.20151C6.79637 4.97985 8.05407 2.76738 9.33063 0.565966C9.42507 0.403025 9.69375 0.247213 9.8818 0.2468C16.0335 0.230785 22.1851 0.236364 28.3369 0.228821C28.6351 0.228821 28.8003 0.325842 28.9399 0.587974C29.2927 1.25069 29.6768 1.89677 30.1136 2.66416C29.8065 2.66416 29.6121 2.66416 29.4178 2.66416C23.4551 2.6654 17.4924 2.67201 11.5297 2.65724C11.0911 2.6561 10.8545 2.79569 10.6477 3.17323C9.92922 4.48513 9.18423 5.78267 8.43172 7.07546C8.25583 7.37768 8.23656 7.61563 8.4311 7.92323C8.80576 8.51537 9.13454 9.13656 9.51735 9.80702C10.1028 8.7805 10.6545 7.81257 11.2067 6.84505C11.4113 6.48651 11.6599 6.14606 11.8121 5.76655C12.0588 5.15167 12.4597 4.9783 13.1162 4.9814C19.0444 5.00919 24.9727 5.00248 30.9011 4.99163C31.2911 4.99101 31.5307 5.09123 31.7139 5.45297C32.039 6.0944 32.416 6.70928 32.8226 7.42562C32.5605 7.45889 32.3732 7.50332 32.1859 7.50342C26.2575 7.50673 20.3292 7.51572 14.4009 7.49009C13.8157 7.48761 13.5225 7.68269 13.2568 8.18216C12.5787 9.45676 11.8444 10.7017 11.1171 11.9494C10.9718 12.199 10.946 12.3848 11.1094 12.6453C11.4914 13.2541 11.8321 13.8889 12.2368 14.5956C12.4041 14.3185 12.5375 14.1085 12.6605 13.8924C13.3494 12.6821 14.0482 11.4771 14.7146 10.2544C14.8871 9.93783 15.0831 9.81828 15.4389 9.8187C20.0609 9.82355 24.683 9.81374 29.305 9.81157C30.7999 9.81085 32.2952 9.80816 33.7894 9.84257C33.9938 9.84732 34.2802 10.0117 34.3821 10.1875C35.632 12.3448 36.8518 14.5195 38.088 16.6849C38.2452 16.9602 38.2949 17.1879 38.1215 17.492C35.0982 22.7934 32.0791 28.0971 29.0843 33.4145C28.8232 33.8779 28.537 34.0337 28.0313 34.0013C27.3716 33.959 26.7071 33.9909 25.9219 33.9909C26.1403 33.6038 26.2966 33.325 26.4544 33.0472C29.3846 27.8887 32.3116 22.7284 35.2524 17.5761C35.45 17.2301 35.4419 16.9766 35.2416 16.6362C34.4834 15.3474 33.7506 14.0434 33.0287 12.7338C32.8516 12.4123 32.6559 12.2594 32.2691 12.2804C31.6027 12.3166 30.9329 12.2904 30.1614 12.2904C30.2721 12.5104 30.3441 12.6699 30.4299 12.8215C31.1661 14.1234 31.8941 15.43 32.6507 16.7198C32.8259 17.0184 32.7968 17.2358 32.6363 17.5177C30.1599 21.865 27.6918 26.2173 25.2231 30.5691C24.6719 31.5408 24.1147 32.5096 23.5825 33.4918C23.3918 33.8437 23.1775 34.0271 22.7436 34.0016C22.0273 33.9595 21.3067 33.9901 20.4579 33.9901Z" fill="url(#paint0_linear_200_5220)"/>
<path d="M50.1074 9.13693H53.3262V18.7932H56.5449V22.0119H53.3262V25.1872H50.1074V9.13693ZM62.9824 9.13693H66.2012V25.1872H62.9824V22.0119H59.7637V18.7932H62.9824V9.13693ZM56.5449 15.5744H59.7637V18.7932H56.5449V15.5744Z" fill="#DDDDDD"/>
<path d="M70.0332 9.13693H86.127V12.3557H79.6895V22.0119H86.127V25.1872H70.0332V22.0119H76.4707V12.3557H70.0332V9.13693Z" fill="#DDDDDD"/>
<path d="M93.1787 9.13693H106.054V12.3557H93.1787V9.13693ZM89.96 12.3557H93.1787V15.5744H89.96V12.3557ZM93.1787 15.5744H102.835V18.7932H93.1787V15.5744ZM102.835 18.7932H106.054V22.0119H102.835V18.7932ZM89.96 22.0119H102.835V25.1872H89.96V22.0119Z" fill="#DDDDDD"/>
<path d="M109.885 9.13693H125.979V12.3557H113.104V15.5744H122.76V18.7932H113.104V22.0119H125.979V25.1872H109.885V9.13693Z" fill="#DDDDDD"/>
<path d="M133.029 9.13693H145.904V12.3557H133.029V9.13693ZM129.811 12.3557H133.029V15.5744H129.811V12.3557ZM133.029 15.5744H142.686V18.7932H133.029V15.5744ZM142.686 18.7932H145.904V22.0119H142.686V18.7932ZM129.811 22.0119H142.686V25.1872H129.811V22.0119Z" fill="#DDDDDD"/>
<path d="M152.955 9.13693H162.611V12.3557H152.955V9.13693ZM149.736 12.3557H152.955V15.5744H162.611V12.3557H165.83V25.1872H162.611V18.7932H152.955V25.1872H149.736V12.3557Z" fill="#DDDDDD"/>
<path d="M169.663 9.13693H172.882V12.3557H176.101V15.5744H172.882V25.1872H169.663V9.13693ZM182.538 9.13693H185.757V25.1872H182.538V15.5744H179.319V12.3557H182.538V9.13693ZM176.101 15.5744H179.319V18.7932H176.101V15.5744Z" fill="#DDDDDD"/>
<path d="M192.807 9.13693H202.463V12.3557H192.807V9.13693ZM189.588 12.3557H192.807V15.5744H202.463V12.3557H205.682V25.1872H202.463V18.7932H192.807V25.1872H189.588V12.3557Z" fill="#DDDDDD"/>
</g>
<defs>
<linearGradient id="paint0_linear_200_5220" x1="-2.5982" y1="-2.74055" x2="40.4577" y2="35.8613" gradientUnits="userSpaceOnUse">
<stop stop-color="#B79BFF"/>
<stop offset="1" stop-color="#290093"/>
</linearGradient>
<clipPath id="clip0_200_5220">
<rect width="206" height="33.7766" fill="white" transform="translate(0 0.228821)"/>
</clipPath>
</defs>
</svg>
